# xmcd
#
# Track frame offsets:
#	183
#	16333
#	38013
#	60685
#	73760
#	91375
#	116155
#	134600
#	155713
#	168645
#
# Disc length: 2398 seconds
#
# Revision: 0
# Processed by: cddbd v1.5.1PL0 Copyright (c) Steve Scherf et al.
# Submitted via: audiograbber 1.80
#
DISCID=8e095c0a
DTITLE=Dizzy - Gillespie
DYEAR=1900
DGENRE=
TTITLE0=Dizzi's Bussiness
TTITLE1=Jessica's Day
TTITLE2=Tour De Force
TTITLE3=I Can't Get Started
TTITLE4=Doodlin'
TTITLE5=Night In Tunisia
TTITLE6=Stella By Starlight
TTITLE7=The Champ
TTITLE8=My Reverie
TTITLE9=Dizzy's Blues
EXTD=
EXTT0=
EXTT1=
EXTT2=
EXTT3=
EXTT4=
EXTT5=
EXTT6=
EXTT7=
EXTT8=
EXTT9=
PLAYORDER=
